<?xml version="1.0" standalone="no"?>
<!DOCTYPE svg PUBLIC "-//W3C//DTD SVG 20010904//EN"
 "http://www.w3.org/TR/2001/REC-SVG-20010904/DTD/svg10.dtd">
<svg version="1.0" xmlns="http://www.w3.org/2000/svg"
 width="512.000000pt" height="512.000000pt" viewBox="0 0 512.000000 512.000000"
 preserveAspectRatio="xMidYMid meet">

<g transform="translate(0.000000,512.000000) scale(0.100000,-0.100000)"
fill="#000000" stroke="none">
<path d="M3425 4909 c-95 -26 -275 -118 -364 -184 l-73 -55 -126 41 c-361 117
-684 138 -916 57 -253 -88 -395 -170 -579 -337 -37 -33 -77 -63 -90 -66 -12
-3 -51 5 -88 19 -142 53 -314 69 -474 43 -91 -15 -115 -26 -145 -64 -18 -23
-20 -35 -14 -78 3 -27 21 -84 39 -125 119 -273 178 -699 125 -916 -33 -140
-86 -238 -259 -478 -48 -66 -123 -170 -166 -231 -179 -249 -279 -576 -247
-807 26 -184 122 -303 331 -406 l114 -57 126 1 c106 1 140 5 214 28 98 29 170
63 205 96 18 17 29 39 20 40 -2 1 -66 5 -143 10 -158 9 -234 31 -330 95 -68
46 -146 130 -175 190 -35 73 -31 188 10 285 66 152 155 267 343 442 111 102
132 118 138 102 3 -11 16 -82 29 -159 28 -176 78 -353 136 -474 48 -102 179
-306 279 -436 188 -243 450 -407 734 -460 150 -27 376 -16 485 26 57 21 104
54 94 64 -4 4 -62 26 -130 49 -155 54 -261 107 -366 185 -45 33 -82 63 -82 65
0 2 20 1 44 -1 61 -7 129 26 169 83 22 32 44 49 85 65 31 13 75 41 98 64 l43
41 33 -18 c51 -27 156 -58 200 -58 29 0 46 7 66 27 15 15 35 26 44 25 53 -9
158 91 193 183 10 25 19 45 20 45 1 0 17 -7 35 -16 42 -21 116 -14 190 18 45
20 61 22 88 15 38 -12 38 -11 12 -108 -46 -176 -155 -374 -286 -518 l-58 -63
25 -19 c90 -70 249 -30 439 111 163 121 284 269 371 455 57 122 85 208 120
370 61 287 63 301 63 495 0 190 -14 303 -54 446 -9 35 -16 64 -14 64 2 0 63
-20 136 -45 417 -143 633 -328 633 -541 0 -157 -132 -329 -322 -419 -127 -61
-135 -71 -75 -99 48 -24 239 -34 309 -17 176 44 318 167 369 321 27 82 25 259
-4 363 -51 180 -149 336 -310 495 -115 114 -220 189 -534 385 -213 133 -248
165 -328 300 -115 194 -209 567 -214 848 -2 123 -5 139 -25 167 -12 18 -31 37
-41 42 -28 15 -97 11 -175 -11z m-477 -1266 c18 -49 39 -112 47 -141 12 -48
12 -52 -3 -48 -9 3 -36 10 -60 15 -24 5 -46 11 -48 14 -7 7 7 77 15 77 3 0 5
38 3 85 -2 47 0 85 5 85 5 0 23 -39 41 -87z m249 -185 c8 -49 13 -91 10 -94
-3 -3 -32 8 -65 25 l-59 30 8 43 c4 24 9 88 9 143 l1 100 40 -79 c29 -56 45
-105 56 -168z m-201 -101 c88 -44 171 -119 208 -187 24 -44 28 -60 24 -110 -5
-70 -34 -117 -95 -156 -24 -15 -43 -28 -43 -30 0 -5 44 12 80 31 16 8 31 15
33 15 7 0 -12 -78 -39 -158 -25 -76 -57 -142 -96 -202 l-23 -34 49 27 49 27
-7 -42 c-12 -73 -156 -218 -287 -288 l-59 -31 0 70 c0 99 -28 167 -100 244
l-57 61 -62 -32 c-33 -19 -103 -44 -154 -57 l-92 -23 0 -75 c1 -63 6 -84 33
-139 18 -36 50 -84 71 -106 37 -38 38 -40 18 -46 -37 -10 -281 -7 -338 4 -96
18 -292 168 -378 288 l-21 30 50 7 c67 9 71 21 5 17 -63 -4 -117 19 -163 72
-37 42 -46 84 -39 174 9 123 88 274 175 335 51 37 133 47 199 24 l43 -15 -22
31 c-21 30 -20 29 33 -10 29 -22 79 -54 109 -69 49 -26 65 -29 152 -29 56 0
94 -4 90 -9 -3 -5 11 4 32 20 20 16 49 47 62 69 23 36 25 37 21 13 l-4 -27 31
17 c16 9 51 38 77 63 38 37 47 54 53 95 9 58 44 113 94 147 53 36 59 37 142
33 63 -2 87 -9 146 -39z m-1373 -133 c16 -31 16 -31 -9 -43 -14 -6 -27 -11
-28 -11 -6 0 -26 125 -26 161 1 33 2 32 24 -21 12 -30 30 -69 39 -86z m221
-13 c16 -17 16 -19 -3 -24 -24 -6 -31 0 -31 25 0 23 12 23 34 -1z m-171 -64
l24 -32 -42 -37 -43 -37 -11 44 c-15 61 -14 70 12 83 32 15 32 15 60 -21z
m-133 -137 c17 -24 19 -33 10 -51 -7 -12 -15 -17 -20 -13 -7 9 -21 94 -15 94
2 0 13 -13 25 -30z m1771 -107 c19 -22 25 -225 9 -322 -7 -42 -25 -112 -40
-156 -16 -44 -27 -81 -26 -82 8 -8 56 120 69 183 16 77 132 327 166 359 46 41
76 -14 67 -124 -11 -137 -81 -311 -214 -531 -81 -135 -68 -125 -137 -105 -49
14 -69 26 -108 68 l-48 52 40 -56 c37 -50 47 -57 100 -72 41 -12 67 -26 85
-47 26 -32 36 -26 15 8 -14 22 5 61 91 197 31 50 69 114 84 143 l27 53 33 -26
c39 -30 46 -43 46 -91 0 -86 -114 -298 -193 -358 -37 -28 -97 -45 -97 -28 0 6
5 14 10 17 6 3 10 12 10 18 0 7 -5 4 -11 -5 -14 -25 -85 -24 -174 2 -104 30
-101 31 -101 -49 -1 -84 -35 -162 -91 -212 l-37 -32 -23 88 c-28 106 -59 165
-95 183 -36 17 -56 6 -64 -35 -9 -46 9 -123 46 -202 17 -35 30 -67 30 -73 0
-6 -24 -9 -62 -6 -73 5 -166 46 -203 90 l-23 27 -6 -34 c-4 -21 -21 -46 -46
-69 -42 -38 -99 -71 -107 -62 -3 3 10 27 30 53 19 26 49 74 67 105 38 70 47
76 59 46 9 -20 10 -21 9 -3 0 11 -3 30 -7 43 -6 22 -9 19 -41 -33 -103 -166
-122 -186 -165 -167 -41 19 -43 70 -6 138 32 59 39 119 20 174 -5 16 -6 1 -2
-42 5 -64 3 -71 -28 -120 -18 -29 -34 -55 -36 -57 -2 -4 -146 33 -293 76 -213
62 -449 221 -438 295 5 37 55 35 156 -5 48 -20 107 -41 132 -47 24 -7 72 -31
105 -55 59 -42 144 -85 168 -85 7 0 -19 16 -57 35 -119 60 -268 185 -330 279
-45 67 -29 106 33 80 52 -22 181 -98 291 -173 111 -75 136 -87 210 -95 162
-20 211 -44 258 -129 12 -22 22 -33 22 -25 0 8 -12 32 -26 54 -24 35 -25 41
-14 78 19 62 38 86 71 86 31 0 191 49 266 81 40 17 47 17 72 4 57 -29 89 -64
96 -105 4 -22 16 -50 26 -62 l20 -23 -18 30 c-13 21 -18 47 -17 96 1 72 0 68
102 203 50 66 66 106 88 224 18 101 81 321 96 339 15 18 43 16 59 -4z m-631
-379 c60 -65 89 -136 97 -231 l6 -80 -84 -30 c-46 -17 -114 -37 -151 -46 l-68
-15 -30 34 c-79 90 -92 173 -45 270 21 43 36 60 59 68 17 6 58 25 91 43 33 17
65 32 71 32 6 1 30 -20 54 -45z m-292 -90 c-15 -31 -28 -68 -28 -82 0 -20 -3
-23 -12 -14 -6 6 -11 39 -12 74 l-1 63 35 6 c19 4 38 7 41 8 3 0 -7 -24 -23
-55z m1248 -96 c35 -31 36 -34 32 -85 -6 -68 -75 -209 -132 -269 -38 -39 -47
-44 -87 -44 -25 0 -54 7 -65 15 -18 14 -18 15 13 40 69 56 183 270 183 345 0
38 11 38 56 -2z m-548 -342 c23 -8 79 -22 126 -32 47 -9 83 -20 81 -24 -8 -13
-140 -33 -168 -26 -47 11 -129 96 -94 96 8 0 33 -6 55 -14z m-317 -108 c16
-30 50 -153 39 -141 -9 9 -60 140 -60 154 0 15 9 10 21 -13z m-966 -94 c0 -35
-2 -64 -5 -64 -7 0 -80 147 -80 160 0 5 19 0 43 -11 l42 -21 0 -64z m69 41
c20 -9 83 -27 139 -40 182 -44 220 -59 229 -90 9 -35 36 -65 60 -65 27 0 22
-18 -12 -35 -104 -54 -429 47 -470 146 -13 30 -6 99 9 99 5 0 25 -7 45 -15z
m67 -194 c87 -39 179 -62 256 -64 76 -1 82 -16 29 -71 -29 -31 -39 -36 -81
-36 -91 0 -239 51 -302 104 -30 25 -33 33 -33 80 0 29 3 56 7 59 4 4 18 -4 32
-17 14 -14 56 -38 92 -55z"/>
<path d="M2733 3340 c-41 -24 -57 -40 -78 -85 -25 -50 -27 -63 -23 -143 5
-101 25 -149 86 -204 99 -89 270 -66 329 45 41 75 11 222 -65 322 -73 97 -156
118 -249 65z m111 -190 c28 -34 49 -99 40 -124 -7 -19 -9 -19 -35 -6 -38 21
-76 130 -52 153 12 12 21 8 47 -23z"/>
<path d="M1785 3024 c-82 -30 -115 -83 -115 -182 0 -87 22 -156 69 -218 43
-57 82 -82 142 -90 91 -13 194 45 220 123 34 104 -50 282 -164 347 -55 31
-103 38 -152 20z m100 -160 c29 -32 59 -116 50 -144 -5 -17 -10 -18 -26 -9
-41 22 -92 179 -59 179 6 0 22 -12 35 -26z"/>
<path d="M3050 2883 c0 -5 7 -18 15 -29 15 -18 15 -18 13 5 -3 23 -28 44 -28
24z"/>
<path d="M3022 2855 c0 -16 2 -22 5 -12 2 9 2 23 0 30 -3 6 -5 -1 -5 -18z"/>
<path d="M1870 2491 c0 -5 7 -14 15 -21 16 -14 18 -10 9 14 -6 17 -24 22 -24
7z"/>
<path d="M1830 2481 c0 -19 12 -41 20 -36 10 6 1 45 -11 45 -5 0 -9 -4 -9 -9z"/>
</g>
</svg>
